<mxfile host="app.diagrams.net" agent="Mozilla/5.0 (Windows NT 10.0; Win64; x64) AppleWebKit/537.36 (KHTML, like Gecko) Chrome/134.0.0.0 Safari/537.36" version="26.0.15">
  <diagram id="C5RBs43oDa-KdzZeNtuy" name="Page-1">
    <mxGraphModel grid="1" page="1" gridSize="10" guides="1" tooltips="1" connect="1" arrows="1" fold="1" pageScale="1" pageWidth="827" pageHeight="1169" math="0" shadow="0">
      <root>
        <mxCell id="WIyWlLk6GJQsqaUBKTNV-0" />
        <mxCell id="WIyWlLk6GJQsqaUBKTNV-1" parent="WIyWlLk6GJQsqaUBKTNV-0" />
        <mxCell id="kq-nA9VFt-uqac_BsXs--75" style="edgeStyle=orthogonalEdgeStyle;rounded=0;orthogonalLoop=1;jettySize=auto;html=1;exitX=0.5;exitY=0;exitDx=0;exitDy=0;exitPerimeter=0;entryX=0.5;entryY=1;entryDx=0;entryDy=0;" edge="1" parent="WIyWlLk6GJQsqaUBKTNV-1" source="kq-nA9VFt-uqac_BsXs--0" target="kq-nA9VFt-uqac_BsXs--1">
          <mxGeometry relative="1" as="geometry" />
        </mxCell>
        <mxCell id="kq-nA9VFt-uqac_BsXs--0" value="Inicio" style="strokeWidth=2;html=1;shape=mxgraph.flowchart.terminator;whiteSpace=wrap;" vertex="1" parent="WIyWlLk6GJQsqaUBKTNV-1">
          <mxGeometry x="240" y="250" width="100" height="60" as="geometry" />
        </mxCell>
        <mxCell id="kq-nA9VFt-uqac_BsXs--5" style="edgeStyle=orthogonalEdgeStyle;rounded=0;orthogonalLoop=1;jettySize=auto;html=1;exitX=1;exitY=0.5;exitDx=0;exitDy=0;entryX=0;entryY=0.5;entryDx=0;entryDy=0;" edge="1" parent="WIyWlLk6GJQsqaUBKTNV-1" source="kq-nA9VFt-uqac_BsXs--1" target="kq-nA9VFt-uqac_BsXs--4">
          <mxGeometry relative="1" as="geometry" />
        </mxCell>
        <mxCell id="kq-nA9VFt-uqac_BsXs--1" value="Página principal" style="rounded=1;whiteSpace=wrap;html=1;fontSize=12;glass=0;strokeWidth=1;shadow=0;" vertex="1" parent="WIyWlLk6GJQsqaUBKTNV-1">
          <mxGeometry x="230" y="160" width="120" height="40" as="geometry" />
        </mxCell>
        <mxCell id="fK7gMd7X_FuJhdZm0fJz-5" style="edgeStyle=orthogonalEdgeStyle;rounded=0;orthogonalLoop=1;jettySize=auto;html=1;exitX=0.5;exitY=0;exitDx=0;exitDy=0;entryX=0.5;entryY=1;entryDx=0;entryDy=0;" edge="1" parent="WIyWlLk6GJQsqaUBKTNV-1" source="kq-nA9VFt-uqac_BsXs--4" target="kq-nA9VFt-uqac_BsXs--21">
          <mxGeometry relative="1" as="geometry" />
        </mxCell>
        <mxCell id="fK7gMd7X_FuJhdZm0fJz-6" style="edgeStyle=orthogonalEdgeStyle;rounded=0;orthogonalLoop=1;jettySize=auto;html=1;exitX=0.5;exitY=1;exitDx=0;exitDy=0;entryX=0.5;entryY=0;entryDx=0;entryDy=0;" edge="1" parent="WIyWlLk6GJQsqaUBKTNV-1" source="kq-nA9VFt-uqac_BsXs--4" target="kq-nA9VFt-uqac_BsXs--10">
          <mxGeometry relative="1" as="geometry" />
        </mxCell>
        <mxCell id="kq-nA9VFt-uqac_BsXs--4" value="Ver resumen de tareas y proyectos" style="rounded=1;whiteSpace=wrap;html=1;fontSize=12;glass=0;strokeWidth=1;shadow=0;" vertex="1" parent="WIyWlLk6GJQsqaUBKTNV-1">
          <mxGeometry x="370" y="160" width="120" height="40" as="geometry" />
        </mxCell>
        <mxCell id="fK7gMd7X_FuJhdZm0fJz-4" style="edgeStyle=orthogonalEdgeStyle;rounded=0;orthogonalLoop=1;jettySize=auto;html=1;exitX=1;exitY=0.5;exitDx=0;exitDy=0;entryX=0;entryY=0.5;entryDx=0;entryDy=0;" edge="1" parent="WIyWlLk6GJQsqaUBKTNV-1" source="kq-nA9VFt-uqac_BsXs--10" target="kq-nA9VFt-uqac_BsXs--16">
          <mxGeometry relative="1" as="geometry" />
        </mxCell>
        <mxCell id="kq-nA9VFt-uqac_BsXs--10" value="Ir a Tareas" style="rounded=1;whiteSpace=wrap;html=1;fontSize=12;glass=0;strokeWidth=1;shadow=0;" vertex="1" parent="WIyWlLk6GJQsqaUBKTNV-1">
          <mxGeometry x="355" y="231" width="150" height="40" as="geometry" />
        </mxCell>
        <mxCell id="kq-nA9VFt-uqac_BsXs--13" value="Mostrar proyectos pendientes y completadas con detalles" style="rounded=1;whiteSpace=wrap;html=1;fontSize=12;glass=0;strokeWidth=1;shadow=0;" vertex="1" parent="WIyWlLk6GJQsqaUBKTNV-1">
          <mxGeometry x="530" y="90" width="150" height="50" as="geometry" />
        </mxCell>
        <mxCell id="kq-nA9VFt-uqac_BsXs--16" value="Mostrar tareas pendientes y completadas con detalles" style="rounded=1;whiteSpace=wrap;html=1;fontSize=12;glass=0;strokeWidth=1;shadow=0;" vertex="1" parent="WIyWlLk6GJQsqaUBKTNV-1">
          <mxGeometry x="530" y="231" width="150" height="40" as="geometry" />
        </mxCell>
        <mxCell id="fK7gMd7X_FuJhdZm0fJz-3" style="edgeStyle=orthogonalEdgeStyle;rounded=0;orthogonalLoop=1;jettySize=auto;html=1;exitX=1;exitY=0.5;exitDx=0;exitDy=0;entryX=0;entryY=0.5;entryDx=0;entryDy=0;" edge="1" parent="WIyWlLk6GJQsqaUBKTNV-1" source="kq-nA9VFt-uqac_BsXs--21" target="kq-nA9VFt-uqac_BsXs--13">
          <mxGeometry relative="1" as="geometry" />
        </mxCell>
        <mxCell id="kq-nA9VFt-uqac_BsXs--21" value="Ir a Proyectos" style="rounded=1;whiteSpace=wrap;html=1;fontSize=12;glass=0;strokeWidth=1;shadow=0;" vertex="1" parent="WIyWlLk6GJQsqaUBKTNV-1">
          <mxGeometry x="355" y="95" width="150" height="40" as="geometry" />
        </mxCell>
        <mxCell id="dPg8Kzl29IKfbmxJ9fZg-1" style="edgeStyle=orthogonalEdgeStyle;rounded=0;orthogonalLoop=1;jettySize=auto;html=1;exitX=0.5;exitY=0;exitDx=0;exitDy=0;exitPerimeter=0;entryX=0.5;entryY=1;entryDx=0;entryDy=0;" edge="1" parent="WIyWlLk6GJQsqaUBKTNV-1" source="kq-nA9VFt-uqac_BsXs--29" target="kq-nA9VFt-uqac_BsXs--38">
          <mxGeometry relative="1" as="geometry" />
        </mxCell>
        <mxCell id="dPg8Kzl29IKfbmxJ9fZg-2" value="SI" style="edgeLabel;html=1;align=center;verticalAlign=middle;resizable=0;points=[];" connectable="0" vertex="1" parent="dPg8Kzl29IKfbmxJ9fZg-1">
          <mxGeometry x="0.0933" relative="1" as="geometry">
            <mxPoint as="offset" />
          </mxGeometry>
        </mxCell>
        <mxCell id="kq-nA9VFt-uqac_BsXs--29" value="¿Crear/Editar?" style="strokeWidth=2;html=1;shape=mxgraph.flowchart.decision;whiteSpace=wrap;" vertex="1" parent="WIyWlLk6GJQsqaUBKTNV-1">
          <mxGeometry x="760" y="150" width="100" height="100" as="geometry" />
        </mxCell>
        <mxCell id="kq-nA9VFt-uqac_BsXs--31" style="edgeStyle=orthogonalEdgeStyle;rounded=0;orthogonalLoop=1;jettySize=auto;html=1;exitX=1;exitY=0.5;exitDx=0;exitDy=0;entryX=0;entryY=0.5;entryDx=0;entryDy=0;entryPerimeter=0;" edge="1" parent="WIyWlLk6GJQsqaUBKTNV-1" source="kq-nA9VFt-uqac_BsXs--16" target="kq-nA9VFt-uqac_BsXs--29">
          <mxGeometry relative="1" as="geometry" />
        </mxCell>
        <mxCell id="dPg8Kzl29IKfbmxJ9fZg-3" style="edgeStyle=orthogonalEdgeStyle;rounded=0;orthogonalLoop=1;jettySize=auto;html=1;exitX=1;exitY=0.5;exitDx=0;exitDy=0;entryX=0.5;entryY=0;entryDx=0;entryDy=0;" edge="1" parent="WIyWlLk6GJQsqaUBKTNV-1" source="kq-nA9VFt-uqac_BsXs--38" target="kq-nA9VFt-uqac_BsXs--41">
          <mxGeometry relative="1" as="geometry" />
        </mxCell>
        <mxCell id="kq-nA9VFt-uqac_BsXs--38" value="Ir a crear/editar" style="rounded=1;whiteSpace=wrap;html=1;fontSize=12;glass=0;strokeWidth=1;shadow=0;" vertex="1" parent="WIyWlLk6GJQsqaUBKTNV-1">
          <mxGeometry x="735" y="50" width="150" height="40" as="geometry" />
        </mxCell>
        <mxCell id="kq-nA9VFt-uqac_BsXs--44" style="edgeStyle=orthogonalEdgeStyle;rounded=0;orthogonalLoop=1;jettySize=auto;html=1;exitX=0.5;exitY=1;exitDx=0;exitDy=0;entryX=0.5;entryY=0;entryDx=0;entryDy=0;" edge="1" parent="WIyWlLk6GJQsqaUBKTNV-1" source="kq-nA9VFt-uqac_BsXs--41" target="kq-nA9VFt-uqac_BsXs--42">
          <mxGeometry relative="1" as="geometry" />
        </mxCell>
        <mxCell id="kq-nA9VFt-uqac_BsXs--41" value="Completar formulario" style="rounded=1;whiteSpace=wrap;html=1;fontSize=12;glass=0;strokeWidth=1;shadow=0;" vertex="1" parent="WIyWlLk6GJQsqaUBKTNV-1">
          <mxGeometry x="930" y="120" width="150" height="40" as="geometry" />
        </mxCell>
        <mxCell id="kq-nA9VFt-uqac_BsXs--42" value="Crear/editar" style="rounded=1;whiteSpace=wrap;html=1;fontSize=12;glass=0;strokeWidth=1;shadow=0;" vertex="1" parent="WIyWlLk6GJQsqaUBKTNV-1">
          <mxGeometry x="930" y="200" width="150" height="40" as="geometry" />
        </mxCell>
        <mxCell id="dPg8Kzl29IKfbmxJ9fZg-6" style="edgeStyle=orthogonalEdgeStyle;rounded=0;orthogonalLoop=1;jettySize=auto;html=1;exitX=0.5;exitY=1;exitDx=0;exitDy=0;exitPerimeter=0;entryX=0.5;entryY=0;entryDx=0;entryDy=0;" edge="1" parent="WIyWlLk6GJQsqaUBKTNV-1" source="kq-nA9VFt-uqac_BsXs--49" target="kq-nA9VFt-uqac_BsXs--52">
          <mxGeometry relative="1" as="geometry">
            <Array as="points">
              <mxPoint x="790" y="340" />
            </Array>
          </mxGeometry>
        </mxCell>
        <mxCell id="dPg8Kzl29IKfbmxJ9fZg-7" value="SI" style="edgeLabel;html=1;align=center;verticalAlign=middle;resizable=0;points=[];" connectable="0" vertex="1" parent="dPg8Kzl29IKfbmxJ9fZg-6">
          <mxGeometry y="2" relative="1" as="geometry">
            <mxPoint as="offset" />
          </mxGeometry>
        </mxCell>
        <mxCell id="kq-nA9VFt-uqac_BsXs--49" value="¿Completar o eliminar&lt;span style=&quot;background-color: transparent; color: light-dark(rgb(0, 0, 0), rgb(255, 255, 255));&quot;&gt;?&lt;/span&gt;" style="strokeWidth=2;html=1;shape=mxgraph.flowchart.decision;whiteSpace=wrap;" vertex="1" parent="WIyWlLk6GJQsqaUBKTNV-1">
          <mxGeometry x="840" y="240" width="100" height="100" as="geometry" />
        </mxCell>
        <mxCell id="kq-nA9VFt-uqac_BsXs--51" value="Fin" style="strokeWidth=2;html=1;shape=mxgraph.flowchart.terminator;whiteSpace=wrap;" vertex="1" parent="WIyWlLk6GJQsqaUBKTNV-1">
          <mxGeometry x="1120" y="170" width="100" height="60" as="geometry" />
        </mxCell>
        <mxCell id="kq-nA9VFt-uqac_BsXs--52" value="Mostrar ventana de confirmación" style="rounded=1;whiteSpace=wrap;html=1;fontSize=12;glass=0;strokeWidth=1;shadow=0;" vertex="1" parent="WIyWlLk6GJQsqaUBKTNV-1">
          <mxGeometry x="715" y="360" width="150" height="40" as="geometry" />
        </mxCell>
        <mxCell id="kq-nA9VFt-uqac_BsXs--57" style="edgeStyle=orthogonalEdgeStyle;rounded=0;orthogonalLoop=1;jettySize=auto;html=1;exitX=0.5;exitY=1;exitDx=0;exitDy=0;exitPerimeter=0;entryX=0.5;entryY=1;entryDx=0;entryDy=0;" edge="1" parent="WIyWlLk6GJQsqaUBKTNV-1" source="kq-nA9VFt-uqac_BsXs--54" target="kq-nA9VFt-uqac_BsXs--10">
          <mxGeometry relative="1" as="geometry">
            <Array as="points">
              <mxPoint x="970" y="440" />
              <mxPoint x="605" y="440" />
              <mxPoint x="605" y="320" />
              <mxPoint x="430" y="320" />
            </Array>
          </mxGeometry>
        </mxCell>
        <mxCell id="kq-nA9VFt-uqac_BsXs--58" value="NO" style="edgeLabel;html=1;align=center;verticalAlign=middle;resizable=0;points=[];" connectable="0" vertex="1" parent="kq-nA9VFt-uqac_BsXs--57">
          <mxGeometry x="-0.2703" y="-3" relative="1" as="geometry">
            <mxPoint as="offset" />
          </mxGeometry>
        </mxCell>
        <mxCell id="kq-nA9VFt-uqac_BsXs--61" style="edgeStyle=orthogonalEdgeStyle;rounded=0;orthogonalLoop=1;jettySize=auto;html=1;exitX=1;exitY=0.5;exitDx=0;exitDy=0;exitPerimeter=0;entryX=0;entryY=0.5;entryDx=0;entryDy=0;" edge="1" parent="WIyWlLk6GJQsqaUBKTNV-1" source="kq-nA9VFt-uqac_BsXs--54" target="kq-nA9VFt-uqac_BsXs--60">
          <mxGeometry relative="1" as="geometry" />
        </mxCell>
        <mxCell id="kq-nA9VFt-uqac_BsXs--62" value="SI" style="edgeLabel;html=1;align=center;verticalAlign=middle;resizable=0;points=[];" connectable="0" vertex="1" parent="kq-nA9VFt-uqac_BsXs--61">
          <mxGeometry y="1" relative="1" as="geometry">
            <mxPoint as="offset" />
          </mxGeometry>
        </mxCell>
        <mxCell id="kq-nA9VFt-uqac_BsXs--54" value="Confirmación" style="strokeWidth=2;html=1;shape=mxgraph.flowchart.decision;whiteSpace=wrap;" vertex="1" parent="WIyWlLk6GJQsqaUBKTNV-1">
          <mxGeometry x="920" y="330" width="100" height="100" as="geometry" />
        </mxCell>
        <mxCell id="kq-nA9VFt-uqac_BsXs--56" style="edgeStyle=orthogonalEdgeStyle;rounded=0;orthogonalLoop=1;jettySize=auto;html=1;exitX=1;exitY=0.5;exitDx=0;exitDy=0;entryX=0;entryY=0.5;entryDx=0;entryDy=0;entryPerimeter=0;" edge="1" parent="WIyWlLk6GJQsqaUBKTNV-1" source="kq-nA9VFt-uqac_BsXs--52" target="kq-nA9VFt-uqac_BsXs--54">
          <mxGeometry relative="1" as="geometry" />
        </mxCell>
        <mxCell id="kq-nA9VFt-uqac_BsXs--63" style="edgeStyle=orthogonalEdgeStyle;rounded=0;orthogonalLoop=1;jettySize=auto;html=1;exitX=0.5;exitY=1;exitDx=0;exitDy=0;entryX=0.5;entryY=1;entryDx=0;entryDy=0;" edge="1" parent="WIyWlLk6GJQsqaUBKTNV-1" source="kq-nA9VFt-uqac_BsXs--60" target="kq-nA9VFt-uqac_BsXs--10">
          <mxGeometry relative="1" as="geometry">
            <Array as="points">
              <mxPoint x="1135" y="460" />
              <mxPoint x="605" y="460" />
              <mxPoint x="605" y="320" />
              <mxPoint x="430" y="320" />
            </Array>
          </mxGeometry>
        </mxCell>
        <mxCell id="kq-nA9VFt-uqac_BsXs--60" value="Completar/Eliminar" style="rounded=1;whiteSpace=wrap;html=1;fontSize=12;glass=0;strokeWidth=1;shadow=0;" vertex="1" parent="WIyWlLk6GJQsqaUBKTNV-1">
          <mxGeometry x="1060" y="360" width="150" height="40" as="geometry" />
        </mxCell>
        <mxCell id="fK7gMd7X_FuJhdZm0fJz-7" style="edgeStyle=orthogonalEdgeStyle;rounded=0;orthogonalLoop=1;jettySize=auto;html=1;exitX=1;exitY=0.5;exitDx=0;exitDy=0;entryX=0;entryY=0.5;entryDx=0;entryDy=0;entryPerimeter=0;" edge="1" parent="WIyWlLk6GJQsqaUBKTNV-1" source="kq-nA9VFt-uqac_BsXs--42" target="kq-nA9VFt-uqac_BsXs--51">
          <mxGeometry relative="1" as="geometry" />
        </mxCell>
        <mxCell id="dPg8Kzl29IKfbmxJ9fZg-0" style="edgeStyle=orthogonalEdgeStyle;rounded=0;orthogonalLoop=1;jettySize=auto;html=1;exitX=1;exitY=0.5;exitDx=0;exitDy=0;entryX=0;entryY=0.5;entryDx=0;entryDy=0;entryPerimeter=0;" edge="1" parent="WIyWlLk6GJQsqaUBKTNV-1" source="kq-nA9VFt-uqac_BsXs--13" target="kq-nA9VFt-uqac_BsXs--29">
          <mxGeometry relative="1" as="geometry" />
        </mxCell>
        <mxCell id="dPg8Kzl29IKfbmxJ9fZg-4" style="edgeStyle=orthogonalEdgeStyle;rounded=0;orthogonalLoop=1;jettySize=auto;html=1;exitX=0.5;exitY=1;exitDx=0;exitDy=0;exitPerimeter=0;entryX=0;entryY=0.5;entryDx=0;entryDy=0;entryPerimeter=0;" edge="1" parent="WIyWlLk6GJQsqaUBKTNV-1" source="kq-nA9VFt-uqac_BsXs--29" target="kq-nA9VFt-uqac_BsXs--49">
          <mxGeometry relative="1" as="geometry" />
        </mxCell>
        <mxCell id="dPg8Kzl29IKfbmxJ9fZg-5" value="NO" style="edgeLabel;html=1;align=center;verticalAlign=middle;resizable=0;points=[];" connectable="0" vertex="1" parent="dPg8Kzl29IKfbmxJ9fZg-4">
          <mxGeometry x="-0.4286" y="-2" relative="1" as="geometry">
            <mxPoint as="offset" />
          </mxGeometry>
        </mxCell>
        <mxCell id="dPg8Kzl29IKfbmxJ9fZg-8" style="edgeStyle=orthogonalEdgeStyle;rounded=0;orthogonalLoop=1;jettySize=auto;html=1;exitX=1;exitY=0.5;exitDx=0;exitDy=0;exitPerimeter=0;entryX=0.5;entryY=1;entryDx=0;entryDy=0;entryPerimeter=0;" edge="1" parent="WIyWlLk6GJQsqaUBKTNV-1" source="kq-nA9VFt-uqac_BsXs--49" target="kq-nA9VFt-uqac_BsXs--51">
          <mxGeometry relative="1" as="geometry" />
        </mxCell>
        <mxCell id="dPg8Kzl29IKfbmxJ9fZg-9" value="NO" style="edgeLabel;html=1;align=center;verticalAlign=middle;resizable=0;points=[];" connectable="0" vertex="1" parent="dPg8Kzl29IKfbmxJ9fZg-8">
          <mxGeometry x="-0.1103" y="-2" relative="1" as="geometry">
            <mxPoint as="offset" />
          </mxGeometry>
        </mxCell>
      </root>
    </mxGraphModel>
  </diagram>
</mxfile>
